<svg width="49" height="49" viewBox="0 0 49 49" fill="none" xmlns="http://www.w3.org/2000/svg">
<path d="M24.5762 32.0479L32.5762 24.0479L29.7762 21.2479L26.5762 24.4479V16.0479H22.5762V24.4479L19.3762 21.2479L16.5762 24.0479L24.5762 32.0479ZM24.5762 44.0479C21.8095 44.0479 19.2095 43.5229 16.7762 42.4729C14.3428 41.4229 12.2262 39.9979 10.4262 38.1979C8.62617 36.3979 7.20117 34.2812 6.15117 31.8479C5.10117 29.4145 4.57617 26.8145 4.57617 24.0479C4.57617 21.2812 5.10117 18.6812 6.15117 16.2479C7.20117 13.8145 8.62617 11.6979 10.4262 9.89785C12.2262 8.09785 14.3428 6.67285 16.7762 5.62285C19.2095 4.57285 21.8095 4.04785 24.5762 4.04785C27.3428 4.04785 29.9428 4.57285 32.3762 5.62285C34.8095 6.67285 36.9262 8.09785 38.7262 9.89785C40.5262 11.6979 41.9512 13.8145 43.0012 16.2479C44.0512 18.6812 44.5762 21.2812 44.5762 24.0479C44.5762 26.8145 44.0512 29.4145 43.0012 31.8479C41.9512 34.2812 40.5262 36.3979 38.7262 38.1979C36.9262 39.9979 34.8095 41.4229 32.3762 42.4729C29.9428 43.5229 27.3428 44.0479 24.5762 44.0479ZM24.5762 40.0479C29.0428 40.0479 32.8262 38.4979 35.9262 35.3979C39.0262 32.2979 40.5762 28.5145 40.5762 24.0479C40.5762 19.5812 39.0262 15.7979 35.9262 12.6979C32.8262 9.59785 29.0428 8.04785 24.5762 8.04785C20.1095 8.04785 16.3262 9.59785 13.2262 12.6979C10.1262 15.7979 8.57617 19.5812 8.57617 24.0479C8.57617 28.5145 10.1262 32.2979 13.2262 35.3979C16.3262 38.4979 20.1095 40.0479 24.5762 40.0479Z" fill="white"/>
</svg>
