<svg width="25" height="25" viewBox="0 0 25 25" fill="none" xmlns="http://www.w3.org/2000/svg">
<path d="M20.7722 8.51599L10.1722 19.116C10.0783 19.2107 9.95054 19.2639 9.81722 19.2639C9.6839 19.2639 9.5561 19.2107 9.46222 19.116L4.07222 13.726C3.97756 13.6322 3.92432 13.5044 3.92432 13.371C3.92432 13.2377 3.97756 13.1099 4.07222 13.016L4.77222 12.316C4.8661 12.2214 4.9939 12.1681 5.12722 12.1681C5.26054 12.1681 5.38834 12.2214 5.48222 12.316L9.81222 16.646L19.3622 7.09599C19.56 6.9042 19.8744 6.9042 20.0722 7.09599L20.7722 7.80599C20.8669 7.89987 20.9201 8.02767 20.9201 8.16099C20.9201 8.29431 20.8669 8.4221 20.7722 8.51599Z" fill="black"/>
</svg>
